<svg width="75" height="62" viewBox="0 0 75 62" fill="none" xmlns="http://www.w3.org/2000/svg">
<path d="M67.5 0H22.5C18.375 0 15 2.79 15 6.2V43.4C15 46.81 18.375 49.6 22.5 49.6H67.5C71.625 49.6 75 46.81 75 43.4V6.2C75 2.79 71.625 0 67.5 0ZM35.625 23.25C35.625 25.823 33.1125 27.9 30 27.9H26.25V34.1H20.625V15.5H30C33.1125 15.5 35.625 17.577 35.625 20.15V23.25ZM54.375 29.45C54.375 32.023 51.8625 34.1 48.75 34.1H39.375V15.5H48.75C51.8625 15.5 54.375 17.577 54.375 20.15V29.45ZM69.375 20.15H63.75V23.25H69.375V27.9H63.75V34.1H58.125V15.5H69.375V20.15ZM26.25 23.25H30V20.15H26.25V23.25ZM7.5 12.4H0V55.8C0 59.21 3.375 62 7.5 62H60V55.8H7.5V12.4ZM45 29.45H48.75V20.15H45V29.45Z" fill="#324851"/>
</svg>
