<svg width="35" height="35" viewBox="0 0 35 35" fill="none" xmlns="http://www.w3.org/2000/svg">
<path d="M29.1667 24.739C27.6889 24.739 26.3667 25.2661 25.3556 26.0919L11.4917 18.8002C11.5889 18.3961 11.6667 17.992 11.6667 17.5703C11.6667 17.1486 11.5889 16.7445 11.4917 16.3404L25.2 9.11898C26.25 9.99749 27.6306 10.5422 29.1667 10.5422C32.3944 10.5422 35 8.18775 35 5.27108C35 2.35442 32.3944 0 29.1667 0C25.9389 0 23.3333 2.35442 23.3333 5.27108C23.3333 5.69277 23.4111 6.09689 23.5083 6.501L9.8 13.7224C8.75 12.8439 7.36944 12.2992 5.83333 12.2992C2.60556 12.2992 0 14.6536 0 17.5703C0 20.4869 2.60556 22.8414 5.83333 22.8414C7.36944 22.8414 8.75 22.2967 9.8 21.4182L23.6444 28.7274C23.5472 29.0964 23.4889 29.4829 23.4889 29.8695C23.4889 32.6983 26.0361 35 29.1667 35C32.2972 35 34.8444 32.6983 34.8444 29.8695C34.8444 27.0407 32.2972 24.739 29.1667 24.739Z" fill="white"/>
</svg>
